<?xml version="1.0" encoding="UTF-8" standalone="no"?><svg xmlns="http://www.w3.org/2000/svg" xmlns:xlink="http://www.w3.org/1999/xlink" fill="#000000" height="500.9" preserveAspectRatio="xMidYMid meet" version="1" viewBox="-0.5 0.0 463.7 500.9" width="463.7" zoomAndPan="magnify"><g><g id="change1_1"><path d="M220.153,0c0.309,0,0.617,0,0.926,0c5.556,1.664,11.112,2.574,16.667,0c1.08,0,2.161,0,3.241,0 c0.567,1.556,1.119,2.437,3.051,1.163c1.038-0.685,2.692-1.058,4.193-0.299c1.016,0.513,2.132,0.389,3.297,0.35 c2.589-0.087,5.149-0.653,7.849,0.551c1.224,0.546,3.266,1.676,4.97,0.473c2.252-1.59,4.647-1.13,7.053-0.668 c0.898,0.172,1.797,0.767,2.645,0.679c1.354-0.14,2.369-0.135,3.067,1.28c0.447,0.907,1.769,0.998,2.241,0.551 c1.312-1.245,2.141-0.617,3.493,0.007c5.165,2.383,10.527,1.151,15.985,0.355c-0.482,1.824,1.378,2.135,2.015,3.236 c1.361,2.353,3.241,2.075,5.166,1.23c1.627-0.714,2.72-0.793,3.236,1.229c0.203,0.797,0.868,1.07,1.721,1.194 c1.194,0.173,2.439,0.429,3.502,0.966c1.431,0.723,2.755,0.896,4.372,0.705c1.773-0.208,3.797-0.168,5.214,1.239 c2.21,2.195,3.987,4.999,7.735,4.604c0.328-0.035,0.837,0.161,1.015,0.42c1.285,1.867,3.594,2.282,5.279,3.693 c2.417,2.023,3.146,4.846,4.914,7.096c0.707,0.899,1.172,2.291,2.22,2.691c1.868,0.713,1.605,2.119,1.533,3.463 c-0.033,0.601-0.413,1.42-0.005,1.758c1.527,1.265,0.149,2.433-0.372,3.033c-1.119,1.29-2.648,2.18-0.962,4.069 c0.073,0.082-0.321,0.644-0.561,0.929c-0.79,0.94-1.702,1.814-1.267,3.235c0.132,0.429-0.071,0.78-0.43,0.97 c-1.765,0.932-3.108,2.343-4.205,3.943c-1.167,1.702-3.79,1.781-4.511,3.238c-1.123,2.269-3.529,1.934-4.924,3.464 c-1.417,1.554-4.102,0.473-5.574,1.754c-2.583,2.25-6.07,1.736-8.784,3.384c-0.167,0.102-0.515,0.105-0.67-0.002 c-1.153-0.801-2.016-0.133-2.905,0.508c-2.543,1.833-5.253,2.386-8.2,1.034c-0.351-0.161-0.65-0.173-1.06-0.049 c-2.905,0.882-5.757,2.459-8.905,0.816c-0.422-0.22-0.645,0.343-0.944,0.424c-2.038,0.549-4.223,1.683-6.124,1.335 c-2.757-0.504-5.012-0.175-7.223,1.323c-1.345,0.911-2.579,1.548-3.36-0.622c-0.16-0.444-0.289-0.916-1.088-0.354 c-1.924,1.354-4.259,1.724-6.355,0.807c-1.817-0.794-3.321-0.669-4.874,0.21c-0.669,0.378-1.342,0.483-1.989,0.352 c-1.268-0.257-2.121-0.01-2.19,1.572c-2.557-2.647-2.807-2.699-6.14-1.086c-0.486,0.235-0.947,0.755-1.422,0.241 c-0.993-1.073-1.892-0.428-2.919-0.083c-3.544,1.191-7.063,3.141-10.79,0.303c-0.544-0.414-1.443-0.211-2.385,0.398 c-1.33,0.86-3.03,2.964-4.231,2.165c-2.572-1.71-4.357,0.842-6.686,0.587c-1.461-0.16-3.514,0.913-5.418,0.998 c-0.582,0.026-1.177,0.314-1.717,0.581c-0.591,0.293-0.92,1.318-1.652,0.988c-0.384-0.174-0.437-1.083-0.691-1.808 c-1.519,1.564-2.698,2.802-5.012,1.268c-1.003-0.665-3.553-1.542-4.184,1.315c-0.036,0.161-0.336,0.374-0.515,0.376 c-2.372,0.029-4.472,1.357-6.861,1.372c-1.38,0.009-3.179-2.336-4.14,0.619c-0.007,0.021-0.457-0.191-0.641-0.126 c-1.661,0.582-3.906-0.013-4.998,1.468c-1.698,2.302-3.766,2.454-6.075,1.774c-1.192-0.351-1.661-0.043-2.486,0.802 c-1.361,1.392-3.425,2.617-5.195,1.812c-1.766-0.804-2.537,0.16-3.653,0.759c-1.273,0.683-2.749,1.217-3.485,2.512 c-1.078,1.897-5.036,3.919-7.052,3.134c-2.019-0.787-3.318,0.066-3.766,1.732c-0.491,1.828-1.631,3.014-3.056,3.705 c-2.023,0.982-2.74,3.251-4.7,4.186c-0.424,0.202-0.508,0.634-0.364,0.985c0.649,1.584,0.83,2.94-1.17,3.728 c-0.671,0.264-0.348,1.058-0.154,1.443c1.088,2.155,1.151,3.908-1.192,5.392c-0.455,0.288-0.935,0.787-1.498,1.127 c-0.954,0.575-1.621,1.39-1.38,2.656c0.523,2.751,0.212,5.51,0.048,8.268c-0.269,4.551,1.164,6.863,5.191,8.321 c0.943,0.341,1.145,0.858,0.778,1.771c-0.238,0.593-0.233,1.486,0.688,1.148c1.516-0.558,2.048,0.601,2.538,1.377 c0.883,1.399,2.127,2.177,3.398,3.14c2.002,1.518,4.586,1.994,6.321,3.797c1.837,1.909,4.32,1.86,6.584,2.557 c3.019,0.929,6.277-0.27,9.2,1.18c2.052,1.018,4.263,1.361,6.369,0.596c2.361-0.858,4.883-1.062,7.068-2.815 c2.096-1.681,4.75,0.379,7.167,0.578c1.498,0.123,2.072-0.169,2.27-1.282c0.198-1.113,0.522-1.717,1.722-1.569 c0.702,0.087,1.186-0.346,1.58-0.81c1.449-1.706,3.749-1.965,5.567-2.634c2.777-1.021,4.729-3.105,7.292-4.258 c1.149-0.517,1.905-2.292,3.544-1.291c1.388,0.847,1.648,0.157,1.961-1.058c0.418-1.618,1.135-2.862,3.163-1.497 c1.499,1.009,2.464,0.554,2.53-1.37c0.053-1.539,0.755-2.147,2.256-1.45c0.889,0.413,1.653,0.013,1.969-0.68 c0.851-1.865,3.044-2.504,3.833-4.471c0.246-0.614,1.114-1.398,2.401-0.537c1.481,0.991,3.421,2.141,4.569-0.729 c0.157-0.392,1.152-0.79,1.605-0.657c1.176,0.343,1.782-0.531,1.913-1.133c0.606-2.783,3.264-2.857,4.87-2.869 c3.858-0.028,6.932-1.256,9.787-3.68c0.858-0.729,1.958-1.356,3.361-1.137c0.785,0.122,1.745-0.094,1.807-1.485 c0.057-1.28,1.23-1.741,2.377-1.573c2.632,0.384,4.523-0.582,5.906-2.796c1.019-1.631,2.415-2.367,4.471-2.396 c1.167-0.016,2.428-0.746,3.418-1.848c1.997-2.222,5.107-2.662,7.56-4.201c0.096-0.06,0.296,0.039,0.446,0.071 c2.53,0.549,4.121-0.594,4.568-3.345c0.089-0.547,0.311-0.805,0.825-0.926c3.632-0.855,6.693-2.513,8.579-5.93 c0.755-1.368,1.941-1.196,3.149-0.589c2.966,1.49,6.452,0.296,7.807-2.714c0.209-0.464,0.045-1.146,0.814-1.181 c3.228-0.147,5.186-3.164,8.293-3.672c0.591-0.097,1.194-0.612,1.911-0.563c0.96,0.066,1.325-0.305,1.772-1.277 c0.825-1.796,1.963-3.647,4.56-2.982c0.597,0.153,1.076-0.129,1.413-0.579c0.533-0.714,1.482-0.991,2.051-0.786 c1.983,0.712,2.376-0.649,2.903-1.921c0.433-1.046,1.169-1.796,2.296-1.354c2.172,0.852,4.083,1.104,5.65-1.106 c0.245-0.346,0.971-0.466,1.483-0.484c1-0.037,1.43-0.684,2.133-1.248c1.567-1.258,3.616-1.916,5.473-2.81 c0.036-0.017,0.126,0.076,0.19,0.12c1.776,1.219,2.902,0.352,3.91-1.152c1.938-2.891,4.714-4.21,8.036-3.202 c2.204,0.669,4.233-1.551,6.299,0.022c1.675-2.257,4-2.386,6.553-2.273c0.595,0.026,1.04-0.373,1.657,0.255 c0.633,0.643,1.974,0.643,2.367,0.2c1.102-1.239,2.267-1.36,3.662-0.916c2.417,0.77,5.33-1.054,7.123,0.147 c3.272,2.192,7.928,0.629,10.444,4.284c0.101,0.146,0.511,0.272,0.616,0.193c2.207-1.654,3.609,0.431,5.223,1.188 c2.471,1.159,3.908,4.06,2.733,5.874c-0.905,1.398-0.102,1.792,0.567,2.638c1.794,2.27,2.152,5.376,4.252,7.494 c0.079,0.08,0.088,0.362,0.014,0.444c-2.035,2.223,2.26,4.484-0.045,6.693c1.156,1.399-0.243,1.744-0.95,2.457 c-1.029,1.038-0.98,3.074-0.446,3.512c1.711,1.403,1.451,2.558,0.541,4.159c-0.341,0.599-0.23,1.513-0.17,2.271 c0.284,3.551-0.126,6.821-3.536,8.863c-0.858,0.514-0.638,1.055-0.378,1.743c0.543,1.434,0.011,3.502-0.766,3.748 c-2.487,0.787-2.172,2.561-2.053,4.24c0.14,1.965-0.511,3.181-2.497,3.373c-1.235,0.119-1.791,1.036-1.636,1.835 c0.507,2.609-1.965,4.87-0.618,7.591c0.812,1.641-0.549,2.909-1.795,3.499c-1.385,0.656-2.387,1.944-4.199,2.034 c-1.672,0.083-2.163,1.591-1.022,2.76c1.174,1.202,0.658,1.97-0.199,2.896c-1.141,1.233-2.972,1.386-4.098,2.475 c-1.43,1.384-4.927,1.721-3.038,5.161c0.161,0.293-0.208,1.101-0.559,1.408c-0.795,0.693-1.661,1.43-2.631,1.764 c-1.148,0.395-1.468,1.078-1.287,2.083c0.198,1.101,0.416,1.96-1.272,1.822c-0.633-0.051-1.106,0.747-1.425,1.387 c-0.349,0.699-0.719,1.399-1.665,1.331c-1.959-0.139-2.928,1.042-3.707,2.614c-0.335,0.677-0.975,1.086-1.746,1.403 c-1.675,0.687-3.206,1.382-2.375,3.911c0.659,2.003-1.363,2.01-2.619,2.238c-1.043,0.19-2.333-0.204-3.076,0.664 c-1.434,1.674-3.049,2.618-5.288,3.01c-1.139,0.2-2.18,0.916-3.55,1.034c-1.471,0.127-3.089,0.466-4.495,1.458 c-0.978,0.69,0.218,1.743-1.01,2.47c-1.01,0.598-1.98,1.664-2.909,2.55c-0.937,0.894-1.27,1.443-2.613,0.589 c-0.839-0.533-2.264-0.635-2.928,0.837c-0.673,1.492-1.366,3.004-3.524,2.163c-0.352-0.137-0.789,0.096-0.929,0.512 c-0.895,2.66-3.498,3.063-5.522,4.254c-1.21,0.712-2.366,0.502-3.169-0.366c-1.124-1.214-1.565-0.81-2.045,0.433 c-0.56,1.449-3.094,2.592-4.482,1.96c-1.894-0.863-3.231-0.186-4.171,1.437c-0.381,0.658-0.787,1.008-1.505,1.251 c-3.595,1.221-7.117,2.584-10.554,4.256c-2.303,1.121-4.905,2.288-7.566,1.98c-2.275-0.263-4.501,1.638-6.744,0.015 c-0.149-0.108-0.703,0.055-0.826,0.247c-0.817,1.278-2.612,1.133-3.445,2.54c-0.393,0.663-1.924,0.955-2.486,0.191 c-1.2-1.63-3.31-0.965-4.602-2.188c-0.66-0.624-1.114,0.024-1.546,0.432c-0.673,0.635-1.274,1.355-1.991,1.934 c-1.326,1.07-2.734,1.553-3.889-0.2c-0.61-0.925-0.989-0.356-1.637-0.078c-2.038,0.876-3.659,2.595-6.523,1.532 c-1.198-0.445-4.227-0.383-5.482,2.226c-0.534,1.112-1.898,2.613-3.699,0.923c-0.816-0.766-1.985-0.7-2.664,0.224 c-1.182,1.609-2.126,1.059-3.364,0.065c-1.451-1.165-3.06-1.936-4.422,0.25c-0.152,0.245-0.44,0.486-0.711,0.563 c-2.818,0.796-5.886,1.031-7.875,3.64c-0.064,0.084-0.54,0.028-0.606-0.088c-1.392-2.442-3.139-1.958-5.141-0.809 c-0.432,0.248-1.291-0.282-1.962-0.408c-1.56-0.293-2.837,0.425-2.879,1.885c-0.081,2.809-2.819,1.977-3.965,3.248 c-0.098,0.109-0.782-0.05-0.818-0.185c-0.447-1.682-1.694-0.908-2.523-0.699c-0.957,0.241-1.589,0.149-2.492-0.336 c-1.856-0.996-3.8,0.383-3.668,2.435c0.027,0.417,0.105,0.923-0.347,0.889c-1.823-0.137-3.405,0.816-5.112,1.018 c-1.243,0.147-1.191-1.666-2.154-2.182c-0.177-0.095-0.379-0.144-0.217-0.084c-1.252,1.409-2.329,2.738-3.528,3.945 c-1.67,1.679-3.902,0.922-5.896,1.198c-1.754,0.243-4.01-0.476-4.42,2.347c-0.031,0.216-0.414,0.483-0.677,0.546 c-2.133,0.507-3.62,2.753-6.139,2.264c-0.268-0.052-0.77,0.291-0.92,0.578c-1.307,2.497-3.303,2.828-5.726,1.912 c-0.492-0.186-1.139-0.614-1.235,0.275c-0.356,3.315-2.745,4.265-5.455,5.146c-3.339,1.085-5.166,3.955-5.215,6.869 c-0.024,1.474,1.876,1.595,1.635,2.464c-0.658,2.368,1.333,3.141,2.152,4.745c1.466-2.295,1.356-2.194,2.843-0.153 c1.088,1.492,2.593,2.682,3.93,3.989c0.146,0.142,0.416,0.241,0.619,0.228c1.94-0.125,3.891,0.063,5.787-0.727 c1.363-0.568,2.786-0.63,3.1,1.449c0.087,0.574,0.785,1.15,1.137,0.958c2.426-1.325,4.185-0.102,6.184,1.103 c0.631,0.38,1.595,0.615,2.375,1.04c0.714,0.389,1.193,2.074,2.008,1.099c0.55-0.659,1.719-1.541,1.561-2.29 c-0.436-2.056,0.747-2.028,2.047-1.969c0.867,0.039,1.415-0.448,2.057-0.875c0.989-0.657,2.543-0.731,2.716,0.31 c0.288,1.733,0.97,0.593,1.453,0.465c1.613-0.429,3.419-1.65,4.759-1.25c2.372,0.708,4.378,0.399,6.456-0.481 c0.92-0.389,1.512-0.314,2.213,0.464c0.957,1.061,2.638,2.621,3.244,2.595c2.361-0.103,5.187,0.219,7.028-1.422 c2.281-2.032,4.709-2.983,7.638-2.989c0.99-0.002,1.79-0.112,2.117-1.3c0.194-0.706,5.28-1.516,5.46-0.906 c0.668,2.268,2.002,0.886,3.077,0.669c1.12-0.226,2.744,0.719,3.146-1.365c0.12-0.621,0.711-0.917,1.454-0.426 c1.32,0.871,2.689,1.479,4.055,0.008c0.372-0.401,0.82-0.239,1.272-0.032c1.147,0.525,2.225,0.046,2.972-0.677 c2.827-2.738,5.673-2.128,8.557-0.234c0.674,0.443,0.934,0.645,1.592-0.189c1.611-2.039,3.072-2.183,5.319-0.942 c0.669,0.37,1.305,0.548,2.173,0.306c2.331-0.65,4.775-0.98,6.029-3.478c0.255-0.509,0.734-0.878,1.309-0.805 c1.408,0.179,1.979-0.695,2.683-1.703c0.882-1.262,1.782-1.896,3.593-0.641c1.244,0.862,3.304,0.633,4.793,1.651 c0.326,0.223,0.811-0.112,1.201-0.449c3.131-2.707,4.883-2.766,8.196-0.552c0.717,0.479,2.13,0.552,2.426-0.039 c1.096-2.191,2.872-1.296,4.483-1.358c2.696-0.104,5.398-0.198,8.079-0.477c1.034-0.108,1.793-0.163,2.236,0.92 c0.404,0.986,1.247,0.751,1.615,0.223c0.629-0.902,1.567-0.467,2.222-0.812c1.617-0.852,3.391,1.773,4.859-0.318 c0.024-0.034,0.312,0.047,0.405,0.144c1.948,2.016,4.513,0.689,6.752,1.097c1.416,0.258,3.129-0.881,4.65-1.53 c0.827-0.353,1.663-0.823,2.218,0.105c0.686,1.148,1.429,1.162,2.501,0.679c0.749-0.337,1.466,0.18,2.2,0.309 c1.904,0.334,3.329,1.673,5.171,2.158c3.01,0.792,6.041-1.922,9.007,0.159c0.142,0.1,0.568-0.171,0.845-0.305 c1.943-0.936,4.585-0.593,6.096,0.76c0.779,0.698,1.598,1.162,2.018-0.335c0.317-1.132,1.304-1.099,1.758-0.562 c1.905,2.253,4.485,1.818,6.909,1.931c0.869,0.041,1.669,0.097,1.762,1.026c0.255,2.534,1.99,0.744,2.201,0.488 c1.733-2.101,2.973-0.759,4.32,0.4c0.844,0.726,2.022,2.148,2.568,1.947c2.037-0.75,2.071,0.752,2.364,1.773 c0.465,1.62,1.218,1.923,2.705,1.183c0.944-0.47,2.35-0.776,3.055-0.218c1.374,1.087,3.196,1.054,4.5,2.403 c1.367,1.414,3.807,1.954,4.824,3.502c1.352,2.058,3.071,3.024,5.169,3.777c3.949,1.416,4.08,1.321,5.47,3.086 c0.904,1.149,1.629,2.428,2.648,3.532c1.26,1.365,3.18,2.02,3.824,4.098c0.685,2.209,1.16,4.504,2.839,6.408 c0.74,0.839,1.171,1.359,2.11,0.921c1.024-0.478,1.419-0.044,1.203,0.802c-0.661,2.582,0.36,3.785,2.899,4.027 c0.507,0.048,0.968,0.478,1.482,0.587c1.622,0.347,1.641,1.338,1.182,2.615c-0.221,0.616-1.128,1.321-0.577,1.828 c2.218,2.04,2.38,5.697,5.573,6.958c0.685,0.271,0.663,0.941,0.597,1.738c-0.188,2.259-0.469,4.663,2.162,5.969 c0.469,0.233,0.371,0.813,0.371,1.264c0.003,2.602,1.266,5.181,0.077,7.824c-0.168,0.373,0.219,1.009,0.378,1.514 c0.929,2.944,2.729,5.811,0.715,9.008c-0.15,0.238-0.051,0.89,0.163,1.061c2.468,1.967,1.521,5.69,3.812,7.61 c2.345,1.965,1.041,4.299,1.111,6.508c0.022,0.686,0.001,1.337-0.497,1.952c-0.874,1.077-0.379,2.239,0.231,3.178 c1.388,2.136,1.528,4.932-0.029,7c-1.48,1.967-2.142,3.977-0.993,6.297c0.257,0.519,0.141,0.873-0.218,1.223 c-1.459,1.419-1.252,2.986-0.642,4.743c0.279,0.802,0.75,1.661,0.502,2.626c-0.691,2.695-1.371,5.393-2.004,8.102 c-0.124,0.533-0.098,1.179-0.612,1.424c-1.402,0.667-0.858,1.59-0.38,2.466c0.576,1.056,0.723,1.698-0.769,2.175 c-1.68,0.537-3.059,1.913-2.852,3.711c0.29,2.514,0.05,4.848-0.522,7.288c-0.279,1.189-0.495,1.81-1.685,2.219 c-1.563,0.537-3.563,4.855-3.086,6.268c0.806,2.385-0.808,5.272-3.215,5.748c-2.894,0.573-3.506,1.595-2.7,4.508 c0.168,0.607-2.449,5.164-3.034,5.27c-0.063,0.011-0.146-0.042-0.21-0.081c-1.029-0.621-1.828,0.152-2.515,0.605 c-2.228,1.471-4.388,3.053-6.498,4.691c-0.634,0.492-1.537,0.383-2.002,1.347c-0.883,1.829-2.05,3.523-3.116,5.261 c-0.224,0.365-0.352,0.959-0.962,0.803c-4.29-1.097-5.074,3.105-7.038,5.076c-2.069,2.077-3.094,3.139-5.754,1.976 c-1.003-0.438-1.609-0.457-2.579,0.435c-1.011,0.928-2.714,1.71-4.006,1.568c-1.558-0.171-2.187,0.259-2.524,1.5 c-0.403,1.482-1.278,1.725-2.392,0.936c-2.671-1.891-5.115-0.855-7.427,0.584c-1.274,0.794-2.441,0.6-3.388-0.093 c-1.714-1.254-3.28-0.85-4.905-0.043c-0.41,0.204-0.98,0.696-1.182,0.228c-0.6-1.39-2.354-1.357-2.978-2.619 c-0.874-1.768-3.201-1.295-3.654-0.91c-1.996,1.698-3.128,0.366-4.586-0.611c-0.533-0.357-1.245-1.931-2.182-0.127 c-0.377,0.726-1.353-0.001-1.449-0.423c-0.844-3.701-4.848-3.329-7.003-5.389c-0.802-0.767-2.093-1.275-2.296-2.433 c-0.227-1.299-0.605-1.508-1.919-1.488c-3.889,0.057-5.092-1.654-3.879-5.323c0.475-1.437,0.233-2.438-0.91-3.421 c-2.699-2.32-6.305-3.884-6.857-8.059c-0.072-0.547-0.46-0.57-1.04-0.326c-1.936,0.812-3.294-0.746-4.869-1.38 c-0.302-0.121-0.696-0.713-0.35-0.953c2.77-1.921,0.035-3.514-0.294-5.229c-0.055-0.287-0.513-0.675-0.813-0.701 c-0.675-0.059-0.56,0.571-0.601,0.995c-0.058,0.608,0.044,1.292-0.817,1.426c-0.685,0.107-1.175-0.11-1.479-0.793 c-0.339-0.76-1.06-0.814-1.775-0.77c-1.714,0.104-1.972-2.302-3.713-2.141c0.454-2.111-1.699-3.962-0.599-6.168 c0.191-0.382,0.866-1.176-0.321-1.366c-0.649-0.104-1.472-0.589-1.798,0.342c-0.571,1.63-1.583,1.228-2.41,0.488 c-1.087-0.974-1.621-2.456-2.838-3.372c-0.277-0.208-0.299-0.633,0.138-0.947c0.378-0.272,0.391-0.681-0.139-0.845 c-2.246-0.696-2.147-2.588-2.1-4.328c0.038-1.395-0.485-2.527-1.09-3.686c-1.386-2.652-4.624-3.581-5.884-6.467 c-0.374-0.856-2.23-0.933-2.111-2.572c0.023-0.316-0.464-0.348-0.751-0.182c-0.959,0.555-1.227-0.283-1.568-0.813 c-0.94-1.463-1.041-3.242-3.054-4.323c-1.139-0.612-1.172-3.166-2.887-4.412c-1.135-0.825-2.097-2.171-3.066-3.311 c-0.928-1.092-3.363-1.888-1.662-4.158c-2.523,0.082-3.816-1.979-5.706-2.874c-0.204-0.097-0.389-0.415-0.187-0.794 c1.284-2.411-0.885-4.196-1.384-6.242c-0.356-1.46-2.534-2.375-2.333-4.459c0.021-0.219-0.522-0.708-0.801-0.706 c-3.516,0.026-3.606-5.373-7.496-4.72c-0.076,0.013-0.256-0.207-0.283-0.34c-0.375-1.838-1.952-2.277-3.377-2.639 c-1.395-0.354-2.221-1.111-2.397-2.416c-0.237-1.763-1.016-1.823-2.351-1.08c-2.848,1.586-5.01,1.331-7.468-0.987 c-0.823-0.776-1.542-0.907-2.66-0.767c-2.015,0.252-3.665,1.854-5.171,2.1c-2.727,0.445-4.688,1.06-5.96,3.549 c-0.213,0.418-1.106,0.52-1.261,0.929c-0.416,1.102-2.502,1.251-1.791,2.854c0.888,2.001-0.035,2.894-1.77,3.38 c-0.706,0.198-1.511,0.353-1.409,1.195c0.087,0.713,0.43,1.851,1.18,1.819c2.155-0.094,1.913,2.11,3.09,2.911 c0.364,0.248,0.448,1.064,0.042,1.223c-2.526,0.988-0.308,1.695,0.125,2.457c0.298,0.524,0.999,0.935,1.064,1.454 c0.242,1.946,1.509,3.144,2.941,4.116c1.776,1.206,2.504,2.515,2.106,4.791c-0.228,1.303,0.448,2.773-0.113,4.218 c-0.226,0.583,0.015,1.138,0.949,1.126c1.254-0.016,1.872,0.774,2.103,2.005c0.27,1.435,0.936,2.501,2.684,1.847 c0.782-0.293,1.519,0.249,1.373,0.705c-0.436,1.359,0.486,3.047-0.143,3.877c-1.458,1.922,0.029,1.73,1.051,2.063 c1.29,0.419,2.485,0.936,2.261,2.651c-0.384,2.935-0.044,3.573,2.838,3.752c1.306,0.081,1.308,0.533,1.475,1.53 c0.423,2.521-0.195,5.363,2.119,7.363c0.484,0.418,0.694,1.143,0.445,1.709c-0.638,1.454,0.034,2.666,0.582,3.884 c0.766,1.7,1.086,3.576,1.691,5.306c1.219,3.486,2.19,7.113,3.336,10.664c0.229,0.708,0.808,1.691,0.168,2.306 c-1.18,1.134-0.78,2.54-1.085,3.84c-0.709,3.025,0.309,6.347-1.817,9.164c-0.8,1.06,1.093,2.335,0.479,3.695 c2.995,1.214-0.171,4.006,1.429,5.577c-2.097,3.104-2.043,6.877-2.579,10.302c-0.363,2.318-2.837,5.379,0.458,7.69 c0.114,0.08,0.038,0.443,0.036,0.675c-0.015,1.685-0.102,3.336-0.427,5.024c-0.384,1.995-1.226,1.88-2.575,0.953 c-0.126,0.855,0.838,1.688,0.131,2.083c-1.582,0.885-1.121,1.976-0.884,3.316c0.199,1.125-0.246,2.258-1.878,1.569 c-0.674-0.284-1.29-0.484-1.004,0.655c0.202,0.803-0.505,1.051-0.885,1.461c-1.325,1.43-0.807,4.02-3.114,4.862 c-0.346,0.126,0.183,0.646,0.261,0.987c0.272,1.184,0.354,2.616-0.887,3.093c-3.836,1.472-6.368,4.216-8.31,7.68 c-0.161,0.287-0.703,0.675-0.874,0.596c-2.281-1.056-2.464,1.301-3.051,2.199c-1.073,1.641-6.628,3.899-8.348,2.987 c-1.419-0.753-2.279-0.39-2.273,1.395c0.008,2.382-1.2,3.672-3.584,4.042c-2.837,0.439-5.785,0.589-8.291,2.221 c-1.616,1.052-3.146-0.438-4.506-0.141c-3.407,0.743-6.698,2.059-10.086,0.041c-0.412-0.245-0.687,0.008-0.919,0.382 c-0.461,0.744-1.025,0.607-1.774,0.33c-0.828-0.307-1.823-0.56-2.65-0.385c-1.516,0.322-2.577-0.455-3.003-1.495 c-0.836-2.037-2.532-2.487-4.283-2.912c-1.812-0.44-3.56-1.074-4.719-2.511c-0.666-0.825-1.327-1-2.24-1.262 c-1.534-0.439-3.606,0.657-4.574-1.537c-0.566-1.282-1.77-1.684-3.02-2.12c-1.048-0.365-3.227-0.062-2.034-2.451 c0.21-0.42-0.297-0.68-0.701-0.642c-1.149,0.109-1.34-0.836-1.748-1.531c-0.434-0.74-0.886-1.686-1.8-1.599 c-2.526,0.241-2.755-1.432-2.969-3.22c-0.054-0.45-0.007-1.034-0.267-1.316c-1.75-1.899-1.194-5.43-4.428-6.264 c-0.062-0.016-0.119-0.103-0.152-0.169c-1.481-2.961-3.686-5.771-1.941-9.407c0.071-0.148-0.093-0.409-0.152-0.636 c-0.659,0.22-0.609,1.751-1.419,1.057c-0.873-0.748-2.275-1.438-2.2-2.777c0.091-1.616-0.094-2.941-1.279-4.152 c-1.33-1.359-2.378-2.772-0.177-4.465c1.046-0.804,1.303-2.03-0.047-3.094c-0.473-0.372-1.36-0.876-0.75-1.674 c1.412-1.846-0.308-3.399-1.093-3.997c-1.58-1.203-2.001-2.052-0.908-3.696c0.262-0.394,0.176-1.043,0.19-1.576 c0.065-2.574-0.843-5.206,0.442-7.704c0.839-1.633,0.855-3.34,0.636-5.107c-0.05-0.402,0.161-0.936,0.431-1.259 c0.747-0.895,0.693-1.862,0.335-2.822c-0.23-0.618-0.435-1.186,0.025-1.727c1.1-1.292,0.792-2.738,0.428-4.145 c-0.143-0.552-0.402-1.19,0.054-1.485c1.833-1.188,0.779-2.497,0.216-3.734c-0.599-1.315-1.464-2.549,0.505-3.51 c0.3-0.146,0.517-0.806,0.493-1.213c-0.124-2.161,0.939-3.925,1.828-5.742c0.479-0.98,0.73-2.204-0.12-2.738 c-1.346-0.845-0.812-2.821-2.449-3.411c-0.492-0.177-0.129-0.918,0.16-1.416c2.495-4.307,3.604-8.772,1.919-13.72 c-0.835-2.452-0.019-3.6,2.427-4.252c-1.692-1.99-1.938-2.431-1.145-2.926c1.079-0.673,1.242-1.543,1.443-2.56 c0.062-0.315,0.716-0.54,0.279-0.92c-0.238-0.207-0.843-0.335-1.048-0.182c-1.33,0.986-1.632,0.064-1.599-0.928 c0.067-1.963-2.609-3.997,0.122-5.894c0.039-0.027,0.012-0.148,0.02-0.224c0.281-2.785,0.703-5.613-2.601-7.101 c-0.326-0.147-0.669-0.495-0.785-0.827c-0.556-1.586-1.752-3.246-0.605-4.886c1.428-2.041,1.305-3.603-0.667-5.094 c-1.223-0.924-3.315-2.102-3.258-3.063c0.201-3.445-1.012-6.641-1.116-9.931c-0.061-1.928-0.625-1.988-1.873-1.647 c-0.848,0.232-1.553,0.452-2.41,0.038c-3.871-1.872-6.728-4.888-9.463-8.093c-0.719-0.842-0.742-2.742-2.718-2.102 c-1.301,0.421-2.492-0.657-4.009-0.146c-1.582,0.533-2.375,1.776-3.587,2.598c-1.685,1.142-3.148,3.122-5.34,0.777 c-0.216-0.231-0.615-0.196-1.133,0.014c-2.803,1.139-3.481,4.551-6.302,5.657c-0.729,0.286-0.532,2.106-1.65,1.894 c-2.146-0.407-3.496,0.821-5.133,1.736c-1.485,0.83-1.84,1.667-1.083,3.109c0.295,0.563,0.511,1.549-0.141,1.594 c-2.458,0.17-3.228,3.77-6.217,2.865c-0.885-0.268-0.668,0.934-0.901,1.53c-0.746,1.914-0.762,4.538-4.003,4.167 c-0.659-0.075-1.355,0.378-1.797,1.182c-0.809,1.473-2.494,2.057-3.693,3.166c-0.697,0.645-1.396-0.266-2.071-0.519 c-0.569-0.213-0.755,0.046-1.1,0.437c-1.935,2.193-2.79,5.385-5.951,6.475c-0.173,0.06-0.254,0.724-0.191,1.074 c0.301,1.677-0.388,1.753-1.808,1.421c-1.527-0.357-3.249-0.838-4.541,0.621c-1.276,1.441-2.936,2.307-4.541,3.257 c-1.36,0.805-2.746,0.919-4.134-0.24c-0.818,2.067-1.588,4.056-2.401,6.027c-0.169,0.41-0.413,0.908-0.768,1.102 c-2.059,1.127-2.718,4.165-5.838,4.018c-0.727-0.034-1.417,0.92-2.696,0.372c-1.67-0.715-3.852-0.159-4.913,1.117 c-1.355,1.628-3.341,2.059-4.724,3.412c-1.817,1.777-3.125,0.522-4.354-0.682c-0.529-0.518-0.932-1.214-1.646-0.628 c-1.998,1.64-4.734,2.301-6.107,4.794c-0.78,1.416-2.607,0.24-3.772,1.234c-0.492,0.42-0.952-0.734-1.43-1.186 c-2.711-2.564-5.422-4.873-9.717-4.294c-1.014,0.137-3.005-0.78-4.072-2.016c-0.39-0.452-0.543-1.142-1.18-1.353 c-1.893-0.631-2.143-2.173-2.172-3.836c-0.024-1.374-0.041-2.651-0.85-3.956c-0.737-1.188-1.356-2.962-0.405-4.161 c2-2.522,0.292-5.28,0.925-7.782c0.564-2.227-1.589-4.125-0.268-6.432c0.66-1.151,1.416-2.948-0.633-3.994 c-0.121-0.062-0.104-0.576-0.017-0.834c0.477-1.413,0.165-2.686-0.442-4.003c-0.532-1.154,0.655-3.951,1.515-3.699 c2.183,0.641,2.082-1.221,2.788-2.172c0.491-0.661,0.526-1.869,1.39-2.009c1.878-0.303,1.629-2.097,1.505-2.815 c-0.682-3.973,1.661-7.143,2.483-10.693c0.107-0.462,0.59-0.368,1.106-0.352c2.322,0.071,5.144,1.108,5.947-2.534 c0.081-0.367,0.598-0.823,0.983-0.905c1.301-0.279,1.165-0.473,0.398-1.513c-2.19-2.971-2.05-3.357,0.676-6.054 c0.548-0.543,1.308-0.98,1.62-1.632c0.789-1.65,2.24-1.823,3.687-2.446c0.743-0.32,0.636-2.778,1.803-3.879 c0.814-0.768,2.467-1.58,2.388-2.196c-0.312-2.414,1.296-1.652,2.413-1.851c0.836-0.149,1.437-0.501,2.17-1.167 c2.015-1.833,1.431-4.139,1.756-6.24c0.428-2.773,1.523-3.794,4.103-2.747c2.087,0.847,2.999,0.076,3.173-1.74 c0.254-2.656,2.274-3.617,4.012-5.007c0.968-0.775,2.988-0.827,2.809-2.323c-0.192-1.611,0.253-3.116,0.127-4.658 c-0.162-1.976,0.899-2.359,2.554-2.266c0.637,0.036,1.66,0.626,1.896-0.182c0.834-2.854,3.431-4.206,5.077-6.351 c0.783-1.02,1.464-2.023,2.866-2.493c2.198-0.735,2.883-3.705,1.275-5.296c-1.378-1.363-0.42-3.049-0.894-4.544 c-0.297-0.939,1.104-0.694,1.661-1.075c0.736-0.503,1.243-1.24,1.357-2.285c0.268-2.449,1.02-4.75,2.784-6.59 c0.401-0.418,0.591-0.829,0.391-1.442c-0.714-2.193,0.562-3.783,1.739-5.372c0.372-0.502,0.678-0.933,0.717-1.623 c0.153-2.686-0.671-5.266-0.767-7.92c-0.027-0.739-3.386-4.014-4.128-4.109c-1.089-0.14-1.21,0.505-1.345,1.375 c-0.268,1.738-1.501,2.506-2.946,3.483c-1.736,1.174-5.056,0.672-5.052,4.099c0.001,0.569-0.904,0.362-1.391,0.522 c-2.733,0.898-5.3,1.977-5.784,5.35c-0.205,1.43-1.303,1.776-2.538,1.672c-2.171-0.184-3.449,0.86-3.59,2.964 c-0.056,0.839-0.275,1.486-0.882,2.303c-2.184,2.935-4.526,5.608-7.512,7.76c-0.921,0.664-1.582,1.134-2.62,0.44 c-1.169-0.781-1.909-0.444-2.495,0.831c-0.586,1.277-1.645,2.186-3.111,1.501c-1.181-0.552-1.801-0.07-2.622,0.621 c-2.051,1.727-3.371,1.642-4.761-0.54c-1.028-1.614-2.493-2.067-4.142-2.497c-1.354-0.354-2.637,0.287-3.805,0.212 c-1.367-0.087-1.982,0.103-2.465,1.254c-0.424,1.011-1.462,0.997-1.792,0.332c-1.048-2.111-4.115-2.125-4.639-4.873 c-0.192-1.007-1.295-1.753-0.381-3.011c0.389-0.536-0.21-1.188-0.715-1.482c-0.51-0.296-1.044-0.682-0.98-1.172 c0.429-3.312-2.017-4.068-4.315-4.792c-1.118-0.352-1.317-0.985-1.144-1.856c0.535-2.699-2.202-4.903-1.134-7.681 c0.038-0.099-0.392-0.399-0.625-0.577c-1.418-1.088-3.512-1.757-2.571-4.288c0.061-0.164-0.27-0.547-0.497-0.734 c-1.417-1.169-1.37-3.205-2.717-4.481c-0.453-0.429-0.562-1.781,0.81-1.952c1.012-0.126,1.362-0.547,0.974-1.547 c-0.305-0.786-3.013-1.285-0.329-2.469c-0.114-0.195-0.188-0.434-0.347-0.58c-2.359-2.171-2.274-5.227-3.013-8.011 c-0.479-1.806,0.713-3.542,0.369-4.946c-0.741-3.02,0.381-5.385,1.115-8.097c0.584-2.156,1.883-4.87-0.731-7.148 c-1.386-1.208-0.805-2.717,1.09-3.232c1.112-0.302,2.209-0.701,2.282-1.925c0.079-1.31-1.364-1.019-2.091-1.284 c-1.049-0.382-1.628-1.212-0.974-1.762c1.268-1.065,1.101-1.885,0.727-3.324c-0.414-1.596-0.243-3.493,1.1-4.853 c0.597-0.605,0.227-0.955-0.123-1.339c-1.864-2.045-1.526-4.457-1.181-6.874c0.244-1.711,0.806-3.026,2.943-2.907 c1.641,0.091,1.881-1.008,1.622-2.336c-0.086-0.442-0.42-0.932-0.31-1.302c0.87-2.912,0.914-5.723-0.515-8.511 c-0.268-0.523-0.274-1.407,0.84-1.483c2.082-0.141,2.183-2.591,2.113-3.262c-0.257-2.452,0.41-4.26,2.132-5.837 c0.918-0.84,1.701-1.663,0.466-2.872c-0.786-0.769-0.007-1.233,0.453-1.694c1.336-1.341,1.906-3.059,2.263-4.826 c0.427-2.112-0.388-4.683,2.682-5.617c2.889-0.879,0.229-4.368,2.465-5.645c0.134-0.076,0.262-0.183,0.407-0.216 c1.29-0.296,1.986-1.719,2.101-2.42c0.336-2.046,1.937-2.89,3.044-4.193c1.172-1.379,2.695-2.515,2.508-4.661 c-0.04-0.455,0.308-1.199,0.69-1.395c2.742-1.406,2.308-4.153,2.947-6.481c0.339-1.237-0.115-3.556,2.609-2.562 c0.527,0.192,1.486,0.04,1.457-0.715c-0.065-1.747,1.37-2.327,2.238-3.367c0.425-0.509,1.145-1.005,0.942-1.768 c-0.835-3.133,2.313-4.029,3.567-5.849c1.054-1.529,2.35-2.882,2.804-4.727c0.398-1.617,1.362-2.66,2.928-2.599 c1.647,0.064,1.908-0.982,2.198-2.052c0.925-3.413,3.596-4.99,6.463-6.465c1.191-0.613,2.793-1.35,2.732-2.795 c-0.04-0.957,0.348-1.069,0.732-1.64c1.114-1.656,2.692-2.581,4.273-3.637c1.304-0.871,2.219-2.066,4.056-2.328 c1.224-0.175,1.838-1.779,3.805-1.951c2.074-0.181,4.56-1.474,6.136-3.584c0.774-1.037,2.467-1.378,2.77-2.804 c0.238-1.122,0.631-1.344,1.699-1.184c1.63,0.244,2.941-0.189,3.072-2.171c0.047-0.711,0.429-1.253,1.11-1.27 c4.021-0.102,6.865-2.66,10.005-4.639c0.809-0.51,1.717-1.525,2.815-0.296c0.398,0.446,0.984,0.236,1.135-0.21 c0.867-2.573,5.034-0.5,5.319-3.821c0.37,0.052,0.742,0.097,1.111,0.157c2.421,0.394,4.184-1.492,6.396-2.005 c1.695-0.393,3.133-1.6,5.079-0.805c0.717,0.293,1.759,0.157,1.998-0.571c0.329-1.004,0.904-1.082,1.712-1.069 c0.473,0.007,1.127-0.073,1.15-0.551c0.067-1.392,1.106-0.902,1.742-1.276c2.289-1.346,4.243-1.637,6.996-1.362 c2.05,0.205,4.623-1.674,7.126-2.189c0.533-0.11,1.003-0.482,1.381-1.079c0.842-1.329,2.191-1.593,3.59-0.892 c0.33,0.165,0.529,0.406,0.965,0.32c3.743-0.74,7.547-1.247,11.219-2.243c2.522-0.684,5.092-1.143,7.579-1.862 c2.01-0.582,3.5-0.03,5.275,1.117c-0.241-1.388,0.835-1.967,1.228-2.912c0.575-1.382,2.341-2.014,3.6-1.172 c0.443,0.296,0.52,0.204,0.873-0.029c3.022-1.995,5.678-2.143,8.618-0.709c0.558,0.272,1.627,0.337,1.995-0.004 c0.898-0.832,1.747-0.499,2.688-0.403c0.507,0.052,1.197,0.027,1.536-0.27c2.645-2.316,5.653-2.466,8.847-1.626 c0.591,0.155,1.073-0.053,1.535-0.296c0.918-0.484,1.745-0.341,2.639,0.097c0.448,0.219,0.936,0.79,1.472,0.44 c2.641-1.727,5.865-0.418,8.573-1.702c0.496-0.235,0.832-0.105,1.261,0.163C216.045,2.993,218.388,2.455,220.153,0z" fill="#f4f12d"/></g><g id="change2_1"><path d="M237.747,0c-5.556,2.574-11.112,1.664-16.667,0C226.635,0,232.191,0,237.747,0z" fill="#f4f12d"/></g></g></svg>